# xmcd CD database file
#
# Track frame offsets:
#	150
#	29438
#	58436
#	87428
#	109414
#	162291
#	208149
#	235542
#	276244
#
# Disc length: 4195 seconds
#
# Revision: 4
# Processed by: cddbd v1.5.2PL0 Copyright (c) Steve Scherf et al.
# Submitted via: CDex 1.51
#
DISCID=83106109
DTITLE=Dave Brubeck Quartet - Red Hot and Cool ~ Newport 1958 ~ Jazz Goes To Junior College  [CD 2-2]
DYEAR=2009
DGENRE=Jazz
TTITLE0=Liberian Suite-Dance n°3
TTITLE1=The Duke
TTITLE2=Flamingo
TTITLE3=C Jam Blues
TTITLE4=Bru's Blues
TTITLE5=These Foolish Things
TTITLE6=The Masquerade Is Over
TTITLE7=One Moment Worth Years
TTITLE8=St. Louis Blues
EXTD=YEAR: 2009
EXTT0=
EXTT1=
EXTT2=
EXTT3=
EXTT4=
EXTT5=
EXTT6=
EXTT7=
EXTT8=
PLAYORDER=
